<svg width="178" height="37" viewBox="0 0 178 37" fill="none" xmlns="http://www.w3.org/2000/svg">
<path d="M10.516 22H5.39C5.19933 22 5.104 21.9047 5.104 21.714V20.636C5.104 20.4453 5.19933 20.35 5.39 20.35H7.062V7.854H2.904V10.186C2.904 10.3913 2.80133 10.494 2.596 10.494H1.364C1.15867 10.494 1.056 10.3913 1.056 10.186V6.49C1.056 6.29933 1.15867 6.204 1.364 6.204H14.63C14.8353 6.204 14.938 6.29933 14.938 6.49V10.186C14.938 10.3913 14.8353 10.494 14.63 10.494H13.376C13.1853 10.494 13.09 10.3913 13.09 10.186V7.854H8.976V20.35H10.516C10.7213 20.35 10.824 20.4453 10.824 20.636V21.714C10.824 21.9047 10.7213 22 10.516 22ZM20.2127 22H16.0107C15.82 22 15.7247 21.912 15.7247 21.736V20.79C15.7247 20.614 15.82 20.526 16.0107 20.526H17.2207V12.65H16.0107C15.82 12.65 15.7247 12.562 15.7247 12.386V11.44C15.7247 11.264 15.82 11.176 16.0107 11.176H18.5847C18.7753 11.176 18.8707 11.264 18.8707 11.44V14.19H18.9367C18.9807 13.9553 19.1347 13.6327 19.3987 13.222C19.6627 12.8113 19.9487 12.474 20.2567 12.21C20.5793 11.9313 21.034 11.682 21.6207 11.462C22.222 11.242 22.8967 11.132 23.6447 11.132C23.8353 11.132 23.9307 11.2273 23.9307 11.418V12.584C23.9307 12.7747 23.8353 12.87 23.6447 12.87H23.1827C21.9213 12.87 20.9167 13.2733 20.1687 14.08C19.4207 14.8867 19.0467 15.8033 19.0467 16.83V20.526H20.2127C20.4033 20.526 20.4987 20.614 20.4987 20.79V21.736C20.4987 21.912 20.4033 22 20.2127 22ZM34.4307 16.808H26.5107C26.5694 18.0253 26.9507 18.964 27.6547 19.624C28.3734 20.284 29.18 20.614 30.0747 20.614C30.9694 20.614 31.732 20.4233 32.3627 20.042C33.008 19.6607 33.4407 19.2867 33.6607 18.92C33.778 18.7733 33.91 18.7513 34.0567 18.854L34.6507 19.448C34.7387 19.536 34.7827 19.6167 34.7827 19.69C34.7827 19.7487 34.746 19.8293 34.6727 19.932C34.614 20.0347 34.482 20.196 34.2767 20.416C34.0714 20.636 33.778 20.8853 33.3967 21.164C33.03 21.4427 32.546 21.6773 31.9447 21.868C31.358 22.0587 30.7274 22.154 30.0527 22.154C28.5127 22.154 27.222 21.648 26.1807 20.636C25.154 19.624 24.6407 18.2673 24.6407 16.566C24.6407 14.85 25.154 13.5007 26.1807 12.518C27.2074 11.5207 28.4614 11.022 29.9427 11.022C31.4387 11.022 32.612 11.506 33.4627 12.474C34.3134 13.4273 34.7387 14.718 34.7387 16.346C34.7387 16.4047 34.7387 16.4633 34.7387 16.522C34.7387 16.7127 34.636 16.808 34.4307 16.808ZM32.9127 15.466C32.8687 14.5567 32.5827 13.8307 32.0547 13.288C31.5267 12.7453 30.8227 12.474 29.9427 12.474C29.0627 12.474 28.3074 12.7233 27.6767 13.222C27.046 13.7207 26.672 14.4687 26.5547 15.466H32.9127ZM41.3626 22.154C40.3799 22.154 39.5952 21.9707 39.0086 21.604C38.4219 21.2373 38.0552 20.8927 37.9086 20.57H37.8646C37.8939 21.2887 37.9086 21.67 37.9086 21.714C37.9086 21.9047 37.8059 22 37.6006 22H36.8526C36.6619 22 36.5666 21.9047 36.5666 21.714V18.414C36.5666 18.2233 36.6619 18.128 36.8526 18.128H37.7106C37.9159 18.128 38.0186 18.2233 38.0186 18.414V18.854C38.1652 19.294 38.4732 19.6973 38.9426 20.064C39.4999 20.504 40.1966 20.724 41.0326 20.724C42.6752 20.724 43.4966 20.152 43.4966 19.008C43.4966 18.612 43.2692 18.2967 42.8146 18.062C42.3599 17.8127 41.8026 17.6073 41.1426 17.446C40.4972 17.2847 39.8519 17.1013 39.2066 16.896C38.5612 16.6907 38.0112 16.3607 37.5566 15.906C37.1019 15.4367 36.8746 14.85 36.8746 14.146C36.8746 13.1927 37.2192 12.4373 37.9086 11.88C38.5979 11.308 39.4779 11.022 40.5486 11.022C42.0006 11.022 43.0419 11.4473 43.6726 12.298H43.7166C43.6872 11.77 43.6726 11.4987 43.6726 11.484C43.6726 11.2933 43.7679 11.198 43.9586 11.198H44.6626C44.8532 11.198 44.9486 11.2933 44.9486 11.484V14.542C44.9486 14.7327 44.8532 14.828 44.6626 14.828H43.8046C43.5992 14.828 43.4966 14.7327 43.4966 14.542V14.234C43.4966 13.838 43.2619 13.4493 42.7926 13.068C42.3379 12.672 41.7439 12.474 41.0106 12.474C40.2772 12.474 39.7052 12.628 39.2946 12.936C38.8839 13.244 38.6786 13.6473 38.6786 14.146C38.6786 14.63 38.9059 15.0113 39.3606 15.29C39.8299 15.554 40.3946 15.7667 41.0546 15.928C41.7146 16.0747 42.3746 16.2433 43.0346 16.434C43.6946 16.6247 44.2519 16.94 44.7066 17.38C45.1759 17.82 45.4106 18.4287 45.4106 19.206C45.4106 19.9833 45.0732 20.6727 44.3986 21.274C43.7386 21.8607 42.7266 22.154 41.3626 22.154ZM67.6483 22H65.7343C65.2063 22 64.7663 21.648 64.4143 20.944L62.3463 16.742C62.1703 16.3753 61.9796 16.104 61.7743 15.928C61.5836 15.752 61.3123 15.6567 60.9603 15.642H58.1663V20.35H60.1463C60.3223 20.35 60.4103 20.438 60.4103 20.614V21.736C60.4103 21.912 60.3223 22 60.1463 22H54.5803C54.3896 22 54.2943 21.912 54.2943 21.736V20.614C54.2943 20.438 54.3896 20.35 54.5803 20.35H56.2523V7.854H54.5803C54.3896 7.854 54.2943 7.766 54.2943 7.59V6.468C54.2943 6.292 54.3896 6.204 54.5803 6.204H61.3563C62.9256 6.204 64.2016 6.622 65.1843 7.458C66.1669 8.27933 66.6583 9.44533 66.6583 10.956C66.6583 13.2587 65.5803 14.696 63.4243 15.268C63.7029 15.488 64.0476 15.9793 64.4583 16.742L66.3063 20.35H67.6483C67.8243 20.35 67.9123 20.438 67.9123 20.614V21.736C67.9123 21.912 67.8243 22 67.6483 22ZM58.1663 14.08H60.9823C63.4756 14.08 64.7223 13.0607 64.7223 11.022C64.7223 8.91 63.4756 7.854 60.9823 7.854H58.1663V14.08ZM78.1641 20.614C77.1374 21.6407 75.8248 22.154 74.2261 22.154C72.6274 22.154 71.3148 21.648 70.2881 20.636C69.2614 19.6093 68.7481 18.2527 68.7481 16.566C68.7481 14.8647 69.2688 13.5153 70.3101 12.518C71.3514 11.5207 72.6568 11.022 74.2261 11.022C75.8101 11.022 77.1154 11.528 78.1421 12.54C79.1834 13.5373 79.7041 14.8793 79.7041 16.566C79.7041 18.238 79.1908 19.5873 78.1641 20.614ZM70.5961 16.566C70.5961 17.7687 70.9481 18.744 71.6521 19.492C72.3561 20.24 73.2141 20.614 74.2261 20.614C75.2528 20.614 76.1181 20.24 76.8221 19.492C77.5261 18.744 77.8781 17.7687 77.8781 16.566C77.8781 15.3633 77.5188 14.3953 76.8001 13.662C76.0961 12.9287 75.2454 12.562 74.2481 12.562C73.2508 12.562 72.3928 12.9287 71.6741 13.662C70.9554 14.3953 70.5961 15.3633 70.5961 16.566ZM86.222 22.154C85.2393 22.154 84.4546 21.9707 83.868 21.604C83.2813 21.2373 82.9146 20.8927 82.768 20.57H82.724C82.7533 21.2887 82.768 21.67 82.768 21.714C82.768 21.9047 82.6653 22 82.46 22H81.712C81.5213 22 81.426 21.9047 81.426 21.714V18.414C81.426 18.2233 81.5213 18.128 81.712 18.128H82.57C82.7753 18.128 82.878 18.2233 82.878 18.414V18.854C83.0246 19.294 83.3326 19.6973 83.802 20.064C84.3593 20.504 85.056 20.724 85.892 20.724C87.5346 20.724 88.356 20.152 88.356 19.008C88.356 18.612 88.1286 18.2967 87.674 18.062C87.2193 17.8127 86.662 17.6073 86.002 17.446C85.3566 17.2847 84.7113 17.1013 84.066 16.896C83.4206 16.6907 82.8706 16.3607 82.416 15.906C81.9613 15.4367 81.734 14.85 81.734 14.146C81.734 13.1927 82.0786 12.4373 82.768 11.88C83.4573 11.308 84.3373 11.022 85.408 11.022C86.86 11.022 87.9013 11.4473 88.532 12.298H88.576C88.5466 11.77 88.532 11.4987 88.532 11.484C88.532 11.2933 88.6273 11.198 88.818 11.198H89.522C89.7126 11.198 89.808 11.2933 89.808 11.484V14.542C89.808 14.7327 89.7126 14.828 89.522 14.828H88.664C88.4586 14.828 88.356 14.7327 88.356 14.542V14.234C88.356 13.838 88.1213 13.4493 87.652 13.068C87.1973 12.672 86.6033 12.474 85.87 12.474C85.1366 12.474 84.5646 12.628 84.154 12.936C83.7433 13.244 83.538 13.6473 83.538 14.146C83.538 14.63 83.7653 15.0113 84.22 15.29C84.6893 15.554 85.254 15.7667 85.914 15.928C86.574 16.0747 87.234 16.2433 87.894 16.434C88.554 16.6247 89.1113 16.94 89.566 17.38C90.0353 17.82 90.27 18.4287 90.27 19.206C90.27 19.9833 89.9326 20.6727 89.258 21.274C88.598 21.8607 87.586 22.154 86.222 22.154ZM103.565 26.95H99.1432C98.9525 26.95 98.8572 26.862 98.8572 26.686V25.74C98.8572 25.564 98.9525 25.476 99.1432 25.476H100.573V20.9L100.639 19.91H100.573C100.309 20.526 99.8692 21.054 99.2532 21.494C98.6372 21.934 97.8818 22.154 96.9872 22.154C95.4912 22.154 94.2885 21.6333 93.3792 20.592C92.4845 19.5507 92.0372 18.2013 92.0372 16.544C92.0372 14.872 92.4918 13.5373 93.4012 12.54C94.3252 11.528 95.5205 11.022 96.9872 11.022C97.8965 11.022 98.6592 11.2347 99.2752 11.66C99.9058 12.0707 100.361 12.5693 100.639 13.156H100.683L100.661 11.44C100.661 11.264 100.749 11.176 100.925 11.176H102.069C102.245 11.176 102.333 11.264 102.333 11.44V25.476H103.565C103.741 25.476 103.829 25.564 103.829 25.74V26.686C103.829 26.862 103.741 26.95 103.565 26.95ZM93.8412 16.588C93.8412 17.7907 94.1638 18.766 94.8092 19.514C95.4545 20.2473 96.2612 20.614 97.2292 20.614C98.1972 20.614 98.9965 20.2473 99.6272 19.514C100.273 18.7807 100.595 17.798 100.595 16.566C100.595 15.334 100.273 14.3587 99.6272 13.64C98.9965 12.9213 98.1972 12.562 97.2292 12.562C96.2612 12.562 95.4545 12.9287 94.8092 13.662C94.1638 14.3953 93.8412 15.3707 93.8412 16.588ZM116.238 22H114.324C113.694 22 113.378 21.692 113.378 21.076V20.262H113.312C112.711 21.5233 111.567 22.154 109.88 22.154C108.707 22.154 107.776 21.8093 107.086 21.12C106.412 20.416 106.067 19.4847 106.052 18.326V12.65H104.798C104.622 12.65 104.534 12.562 104.534 12.386V11.44C104.534 11.264 104.622 11.176 104.798 11.176H106.91C107.541 11.176 107.856 11.484 107.856 12.1V17.886C107.856 18.7367 108.062 19.3967 108.472 19.866C108.883 20.3353 109.484 20.57 110.276 20.57C111.347 20.57 112.19 20.174 112.806 19.382C113.07 19.0447 113.202 18.8173 113.202 18.7V12.65H112.014C111.838 12.65 111.75 12.562 111.75 12.386V11.44C111.75 11.264 111.838 11.176 112.014 11.176H114.742C114.918 11.176 115.006 11.264 115.006 11.44V20.526H116.238C116.429 20.526 116.524 20.614 116.524 20.79V21.736C116.524 21.912 116.429 22 116.238 22ZM127.63 16.808H119.71C119.769 18.0253 120.15 18.964 120.854 19.624C121.573 20.284 122.379 20.614 123.274 20.614C124.169 20.614 124.931 20.4233 125.562 20.042C126.207 19.6607 126.64 19.2867 126.86 18.92C126.977 18.7733 127.109 18.7513 127.256 18.854L127.85 19.448C127.938 19.536 127.982 19.6167 127.982 19.69C127.982 19.7487 127.945 19.8293 127.872 19.932C127.813 20.0347 127.681 20.196 127.476 20.416C127.271 20.636 126.977 20.8853 126.596 21.164C126.229 21.4427 125.745 21.6773 125.144 21.868C124.557 22.0587 123.927 22.154 123.252 22.154C121.712 22.154 120.421 21.648 119.38 20.636C118.353 19.624 117.84 18.2673 117.84 16.566C117.84 14.85 118.353 13.5007 119.38 12.518C120.407 11.5207 121.661 11.022 123.142 11.022C124.638 11.022 125.811 11.506 126.662 12.474C127.513 13.4273 127.938 14.718 127.938 16.346C127.938 16.4047 127.938 16.4633 127.938 16.522C127.938 16.7127 127.835 16.808 127.63 16.808ZM126.112 15.466C126.068 14.5567 125.782 13.8307 125.254 13.288C124.726 12.7453 124.022 12.474 123.142 12.474C122.262 12.474 121.507 12.7233 120.876 13.222C120.245 13.7207 119.871 14.4687 119.754 15.466H126.112ZM131.24 20.394C131.445 20.5847 131.548 20.8267 131.548 21.12C131.548 21.4133 131.445 21.6627 131.24 21.868C131.049 22.0587 130.807 22.154 130.514 22.154C130.22 22.154 129.971 22.0587 129.766 21.868C129.56 21.6627 129.458 21.4133 129.458 21.12C129.458 20.8267 129.56 20.5847 129.766 20.394C129.971 20.1887 130.22 20.086 130.514 20.086C130.807 20.086 131.049 20.1887 131.24 20.394ZM134.57 20.394C134.775 20.5847 134.878 20.8267 134.878 21.12C134.878 21.4133 134.775 21.6627 134.57 21.868C134.379 22.0587 134.137 22.154 133.844 22.154C133.551 22.154 133.301 22.0587 133.096 21.868C132.891 21.6627 132.788 21.4133 132.788 21.12C132.788 20.8267 132.891 20.5847 133.096 20.394C133.301 20.1887 133.551 20.086 133.844 20.086C134.137 20.086 134.379 20.1887 134.57 20.394Z" fill="black"/>
<circle cx="159.5" cy="18.5" r="18.5" fill="#FFD900"/>
<ellipse cx="165.5" cy="15.5" rx="2.5" ry="3.5" fill="black"/>
<ellipse cx="153.5" cy="15.5" rx="2.5" ry="3.5" fill="black"/>
</svg>
