<svg width="44" height="42" viewBox="0 0 44 42" fill="none" xmlns="http://www.w3.org/2000/svg">
<path d="M24.7844 30V1.60001H33.4244C36.411 1.60001 38.771 2.36001 40.5044 3.88C42.2377 5.37334 43.1044 7.44001 43.1044 10.08C43.1044 11.4133 42.7977 12.6 42.1844 13.64C41.571 14.6533 40.7844 15.4533 39.8244 16.04C38.8644 16.6267 37.8777 16.96 36.8644 17.04L36.7044 16.56C38.5977 16.6667 40.011 17.12 40.9444 17.92C41.9044 18.72 42.4644 20.0267 42.6244 21.84L43.3444 30H39.9044L39.2244 22.28C39.1444 21.4 38.931 20.6933 38.5844 20.16C38.2644 19.6 37.7444 19.2 37.0244 18.96C36.331 18.6933 35.371 18.56 34.1444 18.56H28.2244V30H24.7844ZM28.2244 15.2H33.4244C35.3977 15.2 36.9044 14.76 37.9444 13.88C38.9844 12.9733 39.5044 11.7067 39.5044 10.08C39.5044 8.42667 38.9844 7.16001 37.9444 6.28001C36.9044 5.40001 35.3977 4.96001 33.4244 4.96001H28.2244V15.2Z" fill="#0D0D0D"/>
<path d="M9.76 30.64C6.69333 30.64 4.33333 29.9067 2.68 28.44C1.02667 26.9467 0.133333 25.0267 0 22.68L3.56 22.44C3.72 24.1733 4.36 25.4133 5.48 26.16C6.62667 26.9067 8.05333 27.28 9.76 27.28C10.9067 27.28 11.9867 27.12 13 26.8C14.0133 26.4533 14.8267 25.9067 15.44 25.16C16.08 24.3867 16.4 23.36 16.4 22.08C16.4 20.8267 16.12 19.8 15.56 19C15 18.1733 14.2267 17.5733 13.24 17.2C12.28 16.8 11.1867 16.6 9.96 16.6H7.72V13.24H9.96C10.9467 13.24 11.8533 13.0933 12.68 12.8C13.5067 12.5067 14.16 12.04 14.64 11.4C15.1467 10.7333 15.4 9.86666 15.4 8.79999C15.4 7.33332 14.9333 6.22666 14 5.47999C13.0667 4.70666 11.72 4.31999 9.96 4.31999C8.17333 4.31999 6.81333 4.67999 5.88 5.39999C4.97333 6.11999 4.42667 7.10666 4.24 8.35999L0.64 8.11999C0.906667 5.98666 1.84 4.26666 3.44 2.95999C5.04 1.62666 7.21333 0.959991 9.96 0.959991C11.8 0.959991 13.4 1.27999 14.76 1.91999C16.12 2.53332 17.16 3.41332 17.88 4.55999C18.6267 5.70666 19 7.06666 19 8.63999C19 10.4 18.44 11.8267 17.32 12.92C16.2267 13.9867 14.6 14.72 12.44 15.12V14.4C14.76 14.6667 16.6 15.4933 17.96 16.88C19.32 18.2667 20 20 20 22.08C20 23.8933 19.56 25.44 18.68 26.72C17.8 28 16.5867 28.9733 15.04 29.64C13.4933 30.3067 11.7333 30.64 9.76 30.64Z" fill="#0D0D0D"/>
<path d="M41.1545 39.696C41.1599 39.8453 41.1945 39.9733 41.2585 40.08C41.3225 40.1813 41.4052 40.264 41.5065 40.328C41.6132 40.3867 41.7305 40.4293 41.8585 40.456C41.9919 40.4827 42.1279 40.496 42.2665 40.496C42.3732 40.496 42.4852 40.488 42.6025 40.472C42.7199 40.456 42.8265 40.4267 42.9225 40.384C43.0239 40.3413 43.1065 40.28 43.1705 40.2C43.2345 40.1147 43.2665 40.008 43.2665 39.88C43.2665 39.704 43.1999 39.5707 43.0665 39.48C42.9332 39.3893 42.7652 39.3173 42.5625 39.264C42.3652 39.2053 42.1492 39.1547 41.9145 39.112C41.6799 39.064 41.4612 39 41.2585 38.92C41.0612 38.8347 40.8959 38.7173 40.7625 38.568C40.6292 38.4187 40.5625 38.2107 40.5625 37.944C40.5625 37.736 40.6079 37.5573 40.6985 37.408C40.7945 37.2587 40.9145 37.1387 41.0585 37.048C41.2079 36.952 41.3732 36.8827 41.5545 36.84C41.7412 36.792 41.9252 36.768 42.1065 36.768C42.3412 36.768 42.5572 36.7893 42.7545 36.832C42.9519 36.8693 43.1252 36.9387 43.2745 37.04C43.4292 37.136 43.5519 37.2693 43.6425 37.44C43.7332 37.6053 43.7865 37.8133 43.8025 38.064H43.1225C43.1119 37.9307 43.0772 37.8213 43.0185 37.736C42.9599 37.6453 42.8852 37.5733 42.7945 37.52C42.7039 37.4667 42.6025 37.4293 42.4905 37.408C42.3839 37.3813 42.2745 37.368 42.1625 37.368C42.0612 37.368 41.9572 37.376 41.8505 37.392C41.7492 37.408 41.6559 37.4373 41.5705 37.48C41.4852 37.5173 41.4159 37.5707 41.3625 37.64C41.3092 37.704 41.2825 37.7893 41.2825 37.896C41.2825 38.0133 41.3225 38.112 41.4025 38.192C41.4879 38.2667 41.5945 38.3307 41.7225 38.384C41.8505 38.432 41.9945 38.4747 42.1545 38.512C42.3145 38.544 42.4745 38.5787 42.6345 38.616C42.8052 38.6533 42.9705 38.6987 43.1305 38.752C43.2959 38.8053 43.4399 38.8773 43.5625 38.968C43.6905 39.0533 43.7919 39.1627 43.8665 39.296C43.9465 39.4293 43.9865 39.5947 43.9865 39.792C43.9865 40.0427 43.9332 40.2507 43.8265 40.416C43.7252 40.5813 43.5892 40.7147 43.4185 40.816C43.2532 40.9173 43.0639 40.9867 42.8505 41.024C42.6425 41.0667 42.4345 41.088 42.2265 41.088C41.9972 41.088 41.7785 41.064 41.5705 41.016C41.3625 40.968 41.1785 40.8907 41.0185 40.784C40.8585 40.672 40.7305 40.528 40.6345 40.352C40.5385 40.1707 40.4852 39.952 40.4745 39.696H41.1545Z" fill="#464646"/>
<path d="M38.0505 36.864H38.6905V37.736H38.7065C38.8719 37.4 39.0745 37.152 39.3145 36.992C39.5545 36.832 39.8585 36.7573 40.2265 36.768V37.488C39.9545 37.488 39.7225 37.5253 39.5305 37.6C39.3385 37.6747 39.1839 37.784 39.0665 37.928C38.9492 38.072 38.8639 38.248 38.8105 38.456C38.7572 38.6587 38.7305 38.8933 38.7305 39.16V41H38.0505V36.864Z" fill="#464646"/>
<path d="M36.6496 38.536C36.6389 38.376 36.6016 38.224 36.5376 38.08C36.4789 37.936 36.3963 37.8133 36.2896 37.712C36.1883 37.6053 36.0656 37.5227 35.9216 37.464C35.7829 37.4 35.6283 37.368 35.4576 37.368C35.2816 37.368 35.1216 37.4 34.9776 37.464C34.8389 37.5227 34.7189 37.6053 34.6176 37.712C34.5163 37.8187 34.4363 37.944 34.3776 38.088C34.3189 38.2267 34.2843 38.376 34.2736 38.536H36.6496ZM37.3056 39.688C37.2149 40.152 37.0149 40.5013 36.7056 40.736C36.3963 40.9707 36.0069 41.088 35.5376 41.088C35.2069 41.088 34.9189 41.0347 34.6736 40.928C34.4336 40.8213 34.2309 40.672 34.0656 40.48C33.9003 40.288 33.7749 40.0587 33.6896 39.792C33.6096 39.5253 33.5643 39.2347 33.5536 38.92C33.5536 38.6053 33.6016 38.3173 33.6976 38.056C33.7936 37.7947 33.9269 37.568 34.0976 37.376C34.2736 37.184 34.4789 37.0347 34.7136 36.928C34.9536 36.8213 35.2149 36.768 35.4976 36.768C35.8656 36.768 36.1696 36.8453 36.4096 37C36.6549 37.1493 36.8496 37.3413 36.9936 37.576C37.1429 37.8107 37.2443 38.0667 37.2976 38.344C37.3563 38.6213 37.3803 38.8853 37.3696 39.136H34.2736C34.2683 39.3173 34.2896 39.4907 34.3376 39.656C34.3856 39.816 34.4629 39.96 34.5696 40.088C34.6763 40.2107 34.8123 40.3093 34.9776 40.384C35.1429 40.4587 35.3376 40.496 35.5616 40.496C35.8496 40.496 36.0843 40.4293 36.2656 40.296C36.4523 40.1627 36.5749 39.96 36.6336 39.688H37.3056Z" fill="#464646"/>
<path d="M29.3323 36.864H29.9723V37.52H29.9883C30.2709 37.0187 30.7189 36.768 31.3323 36.768C31.6043 36.768 31.8309 36.8053 32.0123 36.88C32.1936 36.9547 32.3403 37.0587 32.4523 37.192C32.5643 37.3253 32.6416 37.4853 32.6843 37.672C32.7323 37.8533 32.7563 38.056 32.7563 38.28V41H32.0763V38.2C32.0763 37.944 32.0016 37.7413 31.8523 37.592C31.7029 37.4427 31.4976 37.368 31.2363 37.368C31.0283 37.368 30.8469 37.4 30.6923 37.464C30.5429 37.528 30.4176 37.6187 30.3163 37.736C30.2149 37.8533 30.1376 37.992 30.0843 38.152C30.0363 38.3067 30.0123 38.4773 30.0123 38.664V41H29.3323V36.864Z" fill="#464646"/>
<path d="M27.7529 36.864H28.5769V37.464H27.7529V40.032C27.7529 40.112 27.7582 40.176 27.7689 40.224C27.7849 40.272 27.8116 40.3093 27.8489 40.336C27.8862 40.3627 27.9369 40.3813 28.0009 40.392C28.0702 40.3973 28.1582 40.4 28.2649 40.4H28.5769V41H28.0569C27.8809 41 27.7289 40.9893 27.6009 40.968C27.4782 40.9413 27.3769 40.896 27.2969 40.832C27.2222 40.768 27.1662 40.6773 27.1289 40.56C27.0916 40.4427 27.0729 40.288 27.0729 40.096V37.464H26.3689V36.864H27.0729V35.624H27.7529V36.864Z" fill="#464646"/>
<path d="M24.1208 36.864H24.7608V37.736H24.7768C24.9422 37.4 25.1448 37.152 25.3848 36.992C25.6248 36.832 25.9288 36.7573 26.2968 36.768V37.488C26.0248 37.488 25.7928 37.5253 25.6008 37.6C25.4088 37.6747 25.2542 37.784 25.1368 37.928C25.0195 38.072 24.9342 38.248 24.8808 38.456C24.8275 38.6587 24.8008 38.8933 24.8008 39.16V41H24.1208V36.864Z" fill="#464646"/>
<path d="M23.5119 40.984C23.3946 41.0533 23.2319 41.088 23.0239 41.088C22.8479 41.088 22.7066 41.04 22.5999 40.944C22.4986 40.8427 22.4479 40.68 22.4479 40.456C22.2612 40.68 22.0426 40.8427 21.7919 40.944C21.5466 41.04 21.2799 41.088 20.9919 41.088C20.8052 41.088 20.6266 41.0667 20.4559 41.024C20.2906 40.9813 20.1466 40.9147 20.0239 40.824C19.9012 40.7333 19.8026 40.616 19.7279 40.472C19.6586 40.3227 19.6239 40.144 19.6239 39.936C19.6239 39.7013 19.6639 39.5093 19.7439 39.36C19.8239 39.2107 19.9279 39.0907 20.0559 39C20.1892 38.904 20.3386 38.832 20.5039 38.784C20.6746 38.736 20.8479 38.696 21.0239 38.664C21.2106 38.6267 21.3866 38.6 21.5519 38.584C21.7226 38.5627 21.8719 38.536 21.9999 38.504C22.1279 38.4667 22.2292 38.416 22.3039 38.352C22.3786 38.2827 22.4159 38.184 22.4159 38.056C22.4159 37.9067 22.3866 37.7867 22.3279 37.696C22.2746 37.6053 22.2026 37.536 22.1119 37.488C22.0266 37.44 21.9279 37.408 21.8159 37.392C21.7092 37.376 21.6026 37.368 21.4959 37.368C21.2079 37.368 20.9679 37.424 20.7759 37.536C20.5839 37.6427 20.4799 37.848 20.4639 38.152H19.7839C19.7946 37.896 19.8479 37.68 19.9439 37.504C20.0399 37.328 20.1679 37.1867 20.3279 37.08C20.4879 36.968 20.6692 36.888 20.8719 36.84C21.0799 36.792 21.3012 36.768 21.5359 36.768C21.7226 36.768 21.9066 36.7813 22.0879 36.808C22.2746 36.8347 22.4426 36.8907 22.5919 36.976C22.7412 37.056 22.8612 37.1707 22.9519 37.32C23.0426 37.4693 23.0879 37.664 23.0879 37.904V40.032C23.0879 40.192 23.0959 40.3093 23.1119 40.384C23.1332 40.4587 23.1972 40.496 23.3039 40.496C23.3626 40.496 23.4319 40.4827 23.5119 40.456V40.984ZM22.4079 38.864C22.3226 38.928 22.2106 38.976 22.0719 39.008C21.9332 39.0347 21.7866 39.0587 21.6319 39.08C21.4826 39.096 21.3306 39.1173 21.1759 39.144C21.0212 39.1653 20.8826 39.2027 20.7599 39.256C20.6372 39.3093 20.5359 39.3867 20.4559 39.488C20.3812 39.584 20.3439 39.7173 20.3439 39.888C20.3439 40 20.3652 40.096 20.4079 40.176C20.4559 40.2507 20.5146 40.312 20.5839 40.36C20.6586 40.408 20.7439 40.4427 20.8399 40.464C20.9359 40.4853 21.0372 40.496 21.1439 40.496C21.3679 40.496 21.5599 40.4667 21.7199 40.408C21.8799 40.344 22.0106 40.2667 22.1119 40.176C22.2132 40.08 22.2879 39.9787 22.3359 39.872C22.3839 39.76 22.4079 39.656 22.4079 39.56V38.864Z" fill="#464646"/>
<path d="M15.5325 38.024H17.0205C17.4525 38.0293 17.7671 37.9413 17.9645 37.76C18.1671 37.5787 18.2685 37.3173 18.2685 36.976C18.2685 36.6347 18.1671 36.376 17.9645 36.2C17.7671 36.0187 17.4525 35.928 17.0205 35.928H15.5325V38.024ZM14.7725 35.288H17.2765C17.8525 35.288 18.2871 35.4373 18.5805 35.736C18.8791 36.0293 19.0285 36.4427 19.0285 36.976C19.0285 37.5093 18.8791 37.9253 18.5805 38.224C18.2871 38.5227 17.8525 38.6693 17.2765 38.664H15.5325V41H14.7725V35.288Z" fill="#464646"/>
<path d="M7.06934 35.288H9.75734C10.3013 35.288 10.7253 35.4213 11.0293 35.688C11.3387 35.9547 11.4933 36.32 11.4933 36.784C11.4933 37.1307 11.4133 37.4347 11.2533 37.696C11.0987 37.9573 10.848 38.136 10.5013 38.232V38.248C10.6667 38.28 10.8 38.3333 10.9013 38.408C11.008 38.4827 11.0907 38.5733 11.1493 38.68C11.2133 38.7813 11.2587 38.896 11.2853 39.024C11.3173 39.152 11.3413 39.2853 11.3573 39.424C11.368 39.5627 11.376 39.704 11.3813 39.848C11.3867 39.992 11.4 40.1333 11.4213 40.272C11.4427 40.4107 11.472 40.544 11.5093 40.672C11.552 40.7947 11.6133 40.904 11.6933 41H10.8453C10.792 40.9413 10.7547 40.8613 10.7333 40.76C10.7173 40.6587 10.7067 40.5467 10.7013 40.424C10.696 40.296 10.6907 40.16 10.6853 40.016C10.68 39.872 10.664 39.7307 10.6373 39.592C10.616 39.4533 10.5893 39.3227 10.5573 39.2C10.5253 39.072 10.4747 38.9627 10.4053 38.872C10.336 38.776 10.2453 38.7013 10.1333 38.648C10.0213 38.5893 9.872 38.56 9.68534 38.56H7.82934V41H7.06934V35.288ZM9.41334 37.92C9.58934 37.92 9.75734 37.9067 9.91734 37.88C10.0773 37.8533 10.216 37.8027 10.3333 37.728C10.456 37.648 10.552 37.544 10.6213 37.416C10.696 37.2827 10.7333 37.112 10.7333 36.904C10.7333 36.616 10.6533 36.3813 10.4933 36.2C10.3333 36.0187 10.0747 35.928 9.71734 35.928H7.82934V37.92H9.41334Z" fill="#464646"/>
<path d="M3.74397 37.76C3.77064 37.7653 3.79464 37.768 3.81597 37.768C3.84264 37.768 3.86931 37.768 3.89597 37.768H4.03997C4.18397 37.768 4.31997 37.7493 4.44797 37.712C4.58131 37.6693 4.69597 37.6107 4.79197 37.536C4.89331 37.456 4.97331 37.3573 5.03197 37.24C5.09064 37.1227 5.11997 36.9893 5.11997 36.84C5.11997 36.536 5.02397 36.3093 4.83197 36.16C4.63997 36.0053 4.39997 35.928 4.11197 35.928C3.93064 35.928 3.77064 35.9627 3.63197 36.032C3.49864 36.096 3.38664 36.184 3.29597 36.296C3.21064 36.408 3.14664 36.5387 3.10397 36.688C3.06131 36.8373 3.03997 36.9947 3.03997 37.16H2.35997C2.37064 36.888 2.41331 36.64 2.48797 36.416C2.56797 36.192 2.67997 36 2.82397 35.84C2.96797 35.68 3.14664 35.5547 3.35997 35.464C3.57864 35.3733 3.82931 35.328 4.11197 35.328C4.35731 35.328 4.58397 35.36 4.79197 35.424C5.00531 35.4827 5.18931 35.5733 5.34397 35.696C5.49864 35.8187 5.61864 35.976 5.70397 36.168C5.79464 36.36 5.83997 36.5867 5.83997 36.848C5.83997 37.104 5.76531 37.3307 5.61597 37.528C5.46664 37.7253 5.27997 37.8747 5.05597 37.976V37.992C5.40264 38.0667 5.65864 38.2293 5.82397 38.48C5.99464 38.7307 6.07997 39.0267 6.07997 39.368C6.07997 39.6507 6.02664 39.9013 5.91997 40.12C5.81864 40.3333 5.67997 40.512 5.50397 40.656C5.32797 40.8 5.11997 40.9093 4.87997 40.984C4.64531 41.0533 4.39464 41.088 4.12797 41.088C3.83997 41.088 3.57864 41.048 3.34397 40.968C3.10931 40.888 2.90931 40.7707 2.74397 40.616C2.57864 40.456 2.45064 40.2613 2.35997 40.032C2.27464 39.8027 2.23464 39.5413 2.23997 39.248H2.91997C2.93064 39.616 3.03731 39.9173 3.23997 40.152C3.44264 40.3813 3.73864 40.496 4.12797 40.496C4.29331 40.496 4.45064 40.472 4.59997 40.424C4.74931 40.3707 4.87997 40.2987 4.99197 40.208C5.10397 40.112 5.19197 39.9973 5.25597 39.864C5.32531 39.7253 5.35997 39.5707 5.35997 39.4C5.35997 39.224 5.32797 39.0693 5.26397 38.936C5.19997 38.7973 5.11464 38.6827 5.00797 38.592C4.90131 38.496 4.77331 38.4267 4.62397 38.384C4.47997 38.336 4.32264 38.312 4.15197 38.312C4.00797 38.312 3.87197 38.32 3.74397 38.336V37.76Z" fill="#464646"/>
</svg>
